# xmcd
#
# Track frame offsets:
#	150
#	15135
#	23979
#	43049
#	52953
#	68085
#	94102
#	112814
#	127196
#	137666
#	160088
#	188460
#	216397
#	232006
#	243553
#	257905
#
# Disc length: 3662 seconds
#
# Revision: 1
# Processed by: cddbd v1.5.1PL0 Copyright (c) Steve Scherf et al.
# Submitted via: audiograbber 1.80.04
#
DISCID=d60e4c10
DTITLE=Billy Crash - Feier Im Bauch
DYEAR=1993
DGENRE=Country - German
TTITLE0=Tänzer Die Sich Nit Berührn
TTITLE1=Ich hab En Rasende Puls
TTITLE2=Es Hirn Is Immmer Unnerwegs
TTITLE3=Was Soll En Typ Wie Ich Schun Mache
TTITLE4=Doktor Glücklich
TTITLE5=Feier Im Bauch
TTITLE6=Uff Em Hieberch Is Heit Hexenacht
TTITLE7=De Michel
TTITLE8=Knoblauch Un Lieb
TTITLE9=Ver Dich
TTITLE10=Mach's Schon
TTITLE11=De Graue Himmel
TTITLE12=Geh Nit Weg
TTITLE13=Des Lebe Is Koo Tonzlokal
TTITLE14=Rhoihesse (Instrumental)
TTITLE15=En Gonz Normale Daach
EXTD=
EXTT0=
EXTT1=
EXTT2=
EXTT3=
EXTT4=
EXTT5=
EXTT6=
EXTT7=
EXTT8=
EXTT9=
EXTT10=
EXTT11=
EXTT12=
EXTT13=
EXTT14=
EXTT15=
PLAYORDER=
